<mxfile host="app.diagrams.net" agent="Mozilla/5.0 (Windows NT 10.0; Win64; x64) AppleWebKit/537.36 (KHTML, like Gecko) Chrome/135.0.0.0 Safari/537.36 Edg/135.0.0.0" version="26.2.10">
  <diagram name="Page-1" id="xg_3VUj3YyWIjeY820tI">
    <mxGraphModel dx="794" dy="897" grid="1" gridSize="10" guides="1" tooltips="1" connect="1" arrows="1" fold="1" page="0" pageScale="1" pageWidth="850" pageHeight="1100" math="0" shadow="0">
      <root>
        <mxCell id="0" />
        <mxCell id="1" parent="0" />
        <mxCell id="HrAAM8D2G3hT2sylql9m-1" value="&lt;span style=&quot;text-align: start; font-family: Nunito, Arial;&quot; data-sheets-root=&quot;1&quot;&gt;&lt;font style=&quot;font-size: 16px;&quot;&gt;A systematic review of hyperparameter optimization techniques in Convolutional Neural Networks&lt;/font&gt;&lt;/span&gt;" style="text;html=1;align=center;verticalAlign=middle;whiteSpace=wrap;rounded=0;" vertex="1" parent="1">
          <mxGeometry x="-360" y="200" width="290" height="30" as="geometry" />
        </mxCell>
        <mxCell id="HrAAM8D2G3hT2sylql9m-2" value="Sequential Model&lt;br&gt;Based Optimization" style="text;html=1;align=center;verticalAlign=middle;resizable=0;points=[];autosize=1;strokeColor=none;fillColor=none;" vertex="1" parent="1">
          <mxGeometry x="50" y="-30" width="130" height="40" as="geometry" />
        </mxCell>
        <mxCell id="HrAAM8D2G3hT2sylql9m-3" value="Meta-heuristic&amp;nbsp;&lt;div&gt;Optimization&lt;/div&gt;&lt;div&gt;&lt;br&gt;&lt;/div&gt;" style="text;html=1;align=center;verticalAlign=middle;resizable=0;points=[];autosize=1;strokeColor=none;fillColor=none;" vertex="1" parent="1">
          <mxGeometry x="120" y="80" width="100" height="60" as="geometry" />
        </mxCell>
        <mxCell id="HrAAM8D2G3hT2sylql9m-4" value="Numerical Approach&amp;nbsp;&lt;br&gt;Based Optimization" style="text;html=1;align=center;verticalAlign=middle;resizable=0;points=[];autosize=1;strokeColor=none;fillColor=none;" vertex="1" parent="1">
          <mxGeometry x="90" y="195" width="130" height="40" as="geometry" />
        </mxCell>
        <mxCell id="HrAAM8D2G3hT2sylql9m-5" value="Statistical Modeling&amp;nbsp;&lt;div&gt;Based Optimization&lt;/div&gt;" style="text;html=1;align=center;verticalAlign=middle;resizable=0;points=[];autosize=1;strokeColor=none;fillColor=none;" vertex="1" parent="1">
          <mxGeometry x="70" y="360" width="130" height="40" as="geometry" />
        </mxCell>
        <mxCell id="HrAAM8D2G3hT2sylql9m-7" value="" style="endArrow=none;html=1;rounded=0;entryX=1;entryY=0.5;entryDx=0;entryDy=0;exitX=-0.003;exitY=0.551;exitDx=0;exitDy=0;exitPerimeter=0;" edge="1" parent="1" source="HrAAM8D2G3hT2sylql9m-5" target="HrAAM8D2G3hT2sylql9m-1">
          <mxGeometry width="50" height="50" relative="1" as="geometry">
            <mxPoint x="-60" y="350" as="sourcePoint" />
            <mxPoint x="-10" y="300" as="targetPoint" />
          </mxGeometry>
        </mxCell>
        <mxCell id="HrAAM8D2G3hT2sylql9m-8" value="" style="endArrow=none;html=1;rounded=0;exitX=1;exitY=0.5;exitDx=0;exitDy=0;" edge="1" parent="1" source="HrAAM8D2G3hT2sylql9m-1" target="HrAAM8D2G3hT2sylql9m-4">
          <mxGeometry width="50" height="50" relative="1" as="geometry">
            <mxPoint x="-10" y="190" as="sourcePoint" />
            <mxPoint x="40" y="140" as="targetPoint" />
          </mxGeometry>
        </mxCell>
        <mxCell id="HrAAM8D2G3hT2sylql9m-9" value="" style="endArrow=none;html=1;rounded=0;entryX=0.03;entryY=0.482;entryDx=0;entryDy=0;entryPerimeter=0;" edge="1" parent="1" target="HrAAM8D2G3hT2sylql9m-3">
          <mxGeometry width="50" height="50" relative="1" as="geometry">
            <mxPoint x="-70" y="210" as="sourcePoint" />
            <mxPoint x="-10" y="140" as="targetPoint" />
          </mxGeometry>
        </mxCell>
        <mxCell id="HrAAM8D2G3hT2sylql9m-10" value="" style="endArrow=none;html=1;rounded=0;exitX=1;exitY=0.25;exitDx=0;exitDy=0;" edge="1" parent="1" source="HrAAM8D2G3hT2sylql9m-1" target="HrAAM8D2G3hT2sylql9m-2">
          <mxGeometry width="50" height="50" relative="1" as="geometry">
            <mxPoint x="-40" y="160" as="sourcePoint" />
            <mxPoint x="10" y="110" as="targetPoint" />
          </mxGeometry>
        </mxCell>
      </root>
    </mxGraphModel>
  </diagram>
</mxfile>
